# xmcd
#
# Track frame offsets:
#	150
#	25776
#	51909
#	71819
#	92066
#	111845
#	130687
#	157982
#	177391
#	200374
#	222425
#	237543
#	262126
#	279288
#
# Disc length: 4055 seconds
#
# Revision: 1
# Processed by: cddbd v1.5.2PL0 Copyright (c) Steve Scherf et al.
# Submitted via: audiograbber 1.83.01
#
DISCID=cf0fd50e
DTITLE=Carol Noonan - Sampler
DYEAR=2002
DGENRE=Country
TTITLE0=Emma
TTITLE1=Without a Trace
TTITLE2=Lost Soul
TTITLE3=Unquiet Grave
TTITLE4=Red River Valley
TTITLE5=Down in teh Valley
TTITLE6=Punkin
TTITLE7=Captain Concrete
TTITLE8=Song fro Harry
TTITLE9=Fields of Gold
TTITLE10=Christmas of 64
TTITLE11=Oh Holy night
TTITLE12=A St. Patty Day Thought
TTITLE13=Danny Boy
EXTD=
EXTT0=
EXTT1=
EXTT2=
EXTT3=
EXTT4=
EXTT5=
EXTT6=
EXTT7=
EXTT8=
EXTT9=
EXTT10=
EXTT11=
EXTT12=
EXTT13=
PLAYORDER=
